<svg id="ea63c921-bec0-4050-8c1e-b8299663f1c3" data-name="Laag 1" xmlns="http://www.w3.org/2000/svg" viewBox="0 0 3454.0708 1806.37144"><defs><style>.fd66e128-74ab-4182-b0ea-044eb862ed16{fill:#1d1d1b;}.a4803535-2e00-49f0-a9a1-467de0e1403d{fill:#010101;}</style></defs><path class="fd66e128-74ab-4182-b0ea-044eb862ed16" d="M1499.19971,117.36914h232.47656v40.65527H1547.29834V275.40723H1703.0459V316.0625H1547.29834V452.34082h190.10352v40.65527H1499.19971Z" transform="translate(-9.99951 -110.49805)"/><path class="fd66e128-74ab-4182-b0ea-044eb862ed16" d="M1842.752,117.36914h232.47657v40.65527H1890.84961V275.40723h155.748V316.0625h-155.748V452.34082h190.10351v40.65527H1842.752Z" transform="translate(-9.99951 -110.49805)"/><path class="fd66e128-74ab-4182-b0ea-044eb862ed16" d="M2177.71484,117.36914h117.38477c76.1543,0,131.69727,27.48535,131.69727,105.93164,0,75.01074-55.543,111.085-131.69727,111.085h-68.71289V492.99609h-48.67188Zm110.51172,178.0791c58.40625,0,90.47266-24.04883,90.47266-72.14746,0-49.24414-32.06641-66.99414-90.47266-66.99414h-61.83984v139.1416Zm34.92969.57324,114.51953,196.97461H2383.2793l-97.91407-171.78027Z" transform="translate(-9.99951 -110.49805)"/><path class="fd66e128-74ab-4182-b0ea-044eb862ed16" d="M2502.94336,444.3252l28.63086-33.21094c28.6289,28.05664,67.5664,46.37988,109.93945,46.37988,51.53321,0,81.3086-24.62109,81.3086-58.97754,0-40.082-29.20118-51.53418-66.99415-67.56738l-54.39648-24.04883c-37.21875-14.88769-80.73633-41.22754-80.73633-96.76953,0-57.25977,51.53321-99.63281,123.10938-99.63281,46.95312,0,88.17969,18.8955,115.66406,46.38086l-25.19336,30.92089c-24.623-21.75976-53.25195-34.92871-92.18945-34.92871-43.51758,0-72.72071,20.61329-72.72071,54.39649,0,36.07422,34.92969,49.24414,66.99415,61.84082l52.67968,23.47656c46.38086,18.32324,83.02735,44.66309,83.02735,100.20606,0,59.5498-50.38868,107.07617-132.84375,107.07617C2584.25391,499.86719,2536.72656,478.1084,2502.94336,444.3252Z" transform="translate(-9.99951 -110.49805)"/><path class="fd66e128-74ab-4182-b0ea-044eb862ed16" d="M2955.86328,158.02441H2831.60742V117.36914h296.60742v40.65527h-124.2539V492.99609h-48.09766Z" transform="translate(-9.99951 -110.49805)"/><path class="fd66e128-74ab-4182-b0ea-044eb862ed16" d="M3216.959,117.36914h232.47657v40.65527h-184.377V275.40723h155.748V316.0625h-155.748V452.34082h190.10352v40.65527H3216.959Z" transform="translate(-9.99951 -110.49805)"/><path class="fd66e128-74ab-4182-b0ea-044eb862ed16" d="M1500.62158,563.8291H1540.918V693.72559h128.94824V563.8291h40.29639V874.82227h-40.29639V728.80664H1540.918V874.82227h-40.29639Z" transform="translate(-9.99951 -110.49805)"/><path class="fd66e128-74ab-4182-b0ea-044eb862ed16" d="M1785.06445,757.251V563.8291h40.29688V758.19922c0,64,27.9707,87.23047,64.94726,87.23047,37.45313,0,65.89649-23.23047,65.89649-87.23047V563.8291h38.40039V757.251c0,89.12695-43.61524,123.25976-104.29688,123.25976C1829.15234,880.51074,1785.06445,846.37793,1785.06445,757.251Z" transform="translate(-9.99951 -110.49805)"/><path class="fd66e128-74ab-4182-b0ea-044eb862ed16" d="M2095.582,563.8291h39.34766v277.334H2288.5293v33.65918H2095.582Z" transform="translate(-9.99951 -110.49805)"/><path class="fd66e128-74ab-4182-b0ea-044eb862ed16" d="M2364.85352,563.8291h93.86718c68.74024,0,115.19922,23.22949,115.19922,91.4961,0,65.89648-46.93359,96.2373-115.19922,96.2373h-54.04492V874.82227h-39.82226Zm89.125,155.4961c54.04492,0,80.11914-19.91114,80.11914-64,0-44.56348-26.54688-59.25977-80.11914-59.25977h-49.30274V719.3252Z" transform="translate(-9.99951 -110.49805)"/><path class="fd66e128-74ab-4182-b0ea-044eb862ed16" d="M2696.64258,563.80762h88.17773c63.52539,0,106.666,21.333,106.666,75.85156,0,30.81445-17.541,58.31152-54.51758,67.793v1.89648c45.50977,7.11035,72.05859,31.7627,72.05859,74.42969,0,61.15527-47.40625,91.02246-117.0957,91.02246h-95.28906Zm81.541,130.84472c53.09571,0,74.42969-17.06738,74.42969-51.6748,0-33.65918-24.65234-45.98535-72.5332-45.98535h-44.08985v97.66015Zm8.0586,146.96289c53.0957,0,83.91211-17.541,83.91211-59.73339,0-38.40039-29.39258-54.04493-83.91211-54.04493h-50.252V841.61523Z" transform="translate(-9.99951 -110.49805)"/><path class="fd66e128-74ab-4182-b0ea-044eb862ed16" d="M2979.1875,841.1416h77.27539V597.4668H2979.1875V563.80762h194.37109V597.4668h-77.27343V841.1416h77.27343v33.65918H2979.1875Z" transform="translate(-9.99951 -110.49805)"/><path class="fd66e128-74ab-4182-b0ea-044eb862ed16" d="M3256.51953,828.81543l25.12695-24.17773c18.01368,27.49609,42.666,40.7705,66.84375,40.7705,44.08985,0,64-22.28222,64-73.48242V596.99219H3282.59375V563.333h170.19336V775.24512c0,57.83691-26.07422,105.24414-103.34766,105.24414C3314.832,880.48926,3278.32812,864.37109,3256.51953,828.81543Z" transform="translate(-9.99951 -110.49805)"/><path class="fd66e128-74ab-4182-b0ea-044eb862ed16" d="M1499.937,939.83887h102.27246v366.81152h201.52881v85.916H1499.937Z" transform="translate(-9.99951 -110.49805)"/><path class="fd66e128-74ab-4182-b0ea-044eb862ed16" d="M1906.87305,939.83887h300.10156v85.916H2009.33984V1116.544H2177.25v85.916H2009.33984v104.19043h204.582v85.916H1906.87305Z" transform="translate(-9.99951 -110.49805)"/><path class="fd66e128-74ab-4182-b0ea-044eb862ed16" d="M2307.76172,939.83887h160.96289c95.90625,0,174.82227,33.34668,174.82227,141.05371,0,104.041-78.916,148.81054-174.82227,148.81054h-58.30273v162.86329H2307.76172Zm152.62695,208.53906c53.81836,0,82.69727-23.16406,82.69727-67.48535,0-44.708-28.87891-59.72754-82.69727-59.72754h-49.96679v127.21289Zm60.42188-11.33594,144.457,255.52442H2550.64844l-100.752-189.86914Z" transform="translate(-9.99951 -110.49805)"/><path class="fd66e128-74ab-4182-b0ea-044eb862ed16" d="M2740.51758,939.83887h300.09961v85.916H2842.98242V1116.544h167.91211v85.916H2842.98242v104.19043h204.582v85.916H2740.51758Z" transform="translate(-9.99951 -110.49805)"/><path class="fd66e128-74ab-4182-b0ea-044eb862ed16" d="M3139.11914,939.83887h105.01563l95.26562,225.07129,38.75391,99.49414h2.39258c-4.5918-47.66211-14.15821-111.10157-14.15821-164.55078V939.83887h97.68164v452.72754H3359.05469l-95.26563-225.57325-38.7539-98.99218h-2.39258c4.58984,50.05468,14.1582,110.71484,14.1582,163.9707v160.59473h-97.68164Z" transform="translate(-9.99951 -110.49805)"/><path class="fd66e128-74ab-4182-b0ea-044eb862ed16" d="M1499.91357,1464.13574H1602.186v366.81153h201.5288v85.916H1499.91357Z" transform="translate(-9.99951 -110.49805)"/><path class="fd66e128-74ab-4182-b0ea-044eb862ed16" d="M1906.84961,1464.13574h300.10156v85.916H2009.31641v90.78906h167.91015v85.916H2009.31641v104.19043h204.582v85.916H1906.84961Z" transform="translate(-9.99951 -110.49805)"/><path class="fd66e128-74ab-4182-b0ea-044eb862ed16" d="M2307.73828,1464.13574h160.96289c95.90625,0,174.82227,33.34668,174.82227,141.05469,0,104.04-78.916,148.80957-174.82227,148.80957h-58.30273v162.86328H2307.73828Zm152.62695,208.53906c53.81836,0,82.69727-23.16308,82.69727-67.48437,0-44.709-28.87891-59.72852-82.69727-59.72852h-49.96679V1672.6748Zm60.42188-11.33593,144.457,255.52441H2550.625l-100.75195-189.86914Z" transform="translate(-9.99951 -110.49805)"/><path class="fd66e128-74ab-4182-b0ea-044eb862ed16" d="M2740.49414,1464.13574h300.09961v85.916H2842.959v90.78906h167.91211v85.916H2842.959v104.19043h204.582v85.916H2740.49414Z" transform="translate(-9.99951 -110.49805)"/><path class="fd66e128-74ab-4182-b0ea-044eb862ed16" d="M3139.0957,1464.13574h105.01563L3339.377,1689.208l38.75391,99.49316h2.39258c-4.5918-47.66211-14.15821-111.10156-14.15821-164.55078V1464.13574h97.68165v452.72754H3359.03125L3263.76562,1691.291l-38.7539-98.99317h-2.39258c4.58984,50.05469,14.1582,110.71485,14.1582,163.9707v160.59473H3139.0957Z" transform="translate(-9.99951 -110.49805)"/><path class="a4803535-2e00-49f0-a9a1-467de0e1403d" d="M349.07262,1713.42561a113.05969,113.05969,0,0,0,18.64372,62.41628l60.47565,90.643c18.52377,27.78565,60.58153,50.38464,93.99488,50.38464H739.77936c33.30045,0,75.36527-22.58488,93.889-50.38464l60.264-90.60765c10.36621-15.65871,18.86952-43.6455,18.86952-62.45159l.4517-138.31072H348.71979ZM630.9867,110.50248C271.167,111.63261,9.99951,403.24855,9.99951,728.31419c0,156.58758,58.00586,299.344,153.69433,408.5814,58.32341,66.47384,149.38976,205.45506,184.24972,322.6664.11044.88208.331,1.82274.441,2.76017H913.624c.11048-.93711.331-1.82274.44105-2.76017,34.84232-117.21134,125.92633-256.19245,184.24972-322.6664,95.79442-106.20305,153.65911-248.74781,153.65911-408.5814C1251.97388,388.53539,973.941,110.51624,630.9867,110.50248Zm340.13159,917.72029c-55.25376,62.98082-123.63293,163.36193-173.0649,267.76538H464.23749c-49.432-104.40345-117.81115-204.78466-173.02962-267.73017-72.18973-82.24546-111.84822-190.56537-111.84822-299.94379,0-218.0512,169.713-447.56948,448.45156-448.45156,252.27605,0,454.80253,202.5265,454.80253,448.45156C1082.61374,837.69261,1043.09633,946.01252,971.11829,1028.22277Zm-396.585-635.45338c-155.59966,0-282.26691,126.66727-282.26691,282.2669a56.45338,56.45338,0,0,0,112.90676,0c0-93.39507,75.96508-169.36014,169.36015-169.36014a56.45338,56.45338,0,1,0,0-112.90676Z" transform="translate(-9.99951 -110.49805)"/></svg>