<svg id="a05ce3c8-9369-4492-8795-4261af672bc0" data-name="Laag 1" xmlns="http://www.w3.org/2000/svg" viewBox="0 0 2542.215 871.32364"><defs><style>.f5088d2f-01f8-4539-8785-a9f5370079d7{fill:none;stroke:#000;stroke-linecap:round;stroke-miterlimit:10;stroke-width:50px;}</style></defs><path class="f5088d2f-01f8-4539-8785-a9f5370079d7" d="M246.94339,300.73121c0-112.56,91.25626-203.8163,203.84533-203.8163,112.56,0,203.84551,91.25626,203.84551,203.8163" transform="translate(-221.13246 -65.00048)"/><line class="f5088d2f-01f8-4539-8785-a9f5370079d7" x1="25.81092" y1="633.39609" x2="25.81092" y2="235.74189"/><line class="f5088d2f-01f8-4539-8785-a9f5370079d7" x1="230.49639" y1="437.48732" x2="25" y2="437.48732"/><path class="f5088d2f-01f8-4539-8785-a9f5370079d7" d="M246.94339,698.39657c0,112.56,91.25626,203.8163,203.84533,203.8163,112.56,0,203.84551-91.25627,203.84551-203.8163" transform="translate(-221.13246 -65.00048)"/><line class="f5088d2f-01f8-4539-8785-a9f5370079d7" x1="558.3458" y1="25.7127" x2="558.3458" y2="841.06895"/><line class="f5088d2f-01f8-4539-8785-a9f5370079d7" x1="966.0842" y1="433.20333" x2="558.60739" y2="433.57832"/><line class="f5088d2f-01f8-4539-8785-a9f5370079d7" x1="966.3458" y1="28.7127" x2="966.3458" y2="844.06895"/><line class="f5088d2f-01f8-4539-8785-a9f5370079d7" x1="1572.3458" y1="27.7127" x2="1572.3458" y2="843.06895"/><line class="f5088d2f-01f8-4539-8785-a9f5370079d7" x1="1984.0842" y1="843.20333" x2="1576.60739" y2="843.57832"/><line class="f5088d2f-01f8-4539-8785-a9f5370079d7" x1="2109.47659" y1="30.45801" x2="2109.47659" y2="845.81426"/><line class="f5088d2f-01f8-4539-8785-a9f5370079d7" x1="2517.215" y1="845.94864" x2="2109.73819" y2="846.32364"/><path class="f5088d2f-01f8-4539-8785-a9f5370079d7" d="M1482.57011,90.54588c112.56,0,203.8163,91.25626,203.8163,203.84534,0,112.56-91.25626,203.84551-203.8163,203.84551" transform="translate(-221.13246 -65.00048)"/><line class="f5088d2f-01f8-4539-8785-a9f5370079d7" x1="1091.3458" y1="28.7127" x2="1091.3458" y2="844.06894"/><line class="f5088d2f-01f8-4539-8785-a9f5370079d7" x1="1255.8678" y1="25" x2="1091.60758" y2="25.57881"/><line class="f5088d2f-01f8-4539-8785-a9f5370079d7" x1="1275.4759" y1="433.10142" x2="1111.21569" y2="433.68023"/><path class="f5088d2f-01f8-4539-8785-a9f5370079d7" d="M1482.57015,501.59659c112.56,0,203.8163,91.25626,203.8163,203.84534,0,112.56-91.25626,203.84551-203.8163,203.84551" transform="translate(-221.13246 -65.00048)"/><line class="f5088d2f-01f8-4539-8785-a9f5370079d7" x1="1255.78283" y1="437.05071" x2="1091.52261" y2="437.62952"/><line class="f5088d2f-01f8-4539-8785-a9f5370079d7" x1="1255.39093" y1="844.15213" x2="1091.13072" y2="844.73094"/></svg>