<svg id="a003a36f-2f30-4708-a0d8-67fd76aeebe8" data-name="Laag 1" xmlns="http://www.w3.org/2000/svg" viewBox="0 0 2739.98169 1936.5661"><defs><style>.a68a6ca4-e576-472d-98ca-da6b8df11cc0,.ac4682fa-2bcf-434b-b6d2-225ed6be15c4{fill:none;stroke-linecap:round;stroke-miterlimit:10;stroke-width:50px;}.a68a6ca4-e576-472d-98ca-da6b8df11cc0{stroke:#1d1d1b;}.ac4682fa-2bcf-434b-b6d2-225ed6be15c4{stroke:#000;}</style></defs><path class="a68a6ca4-e576-472d-98ca-da6b8df11cc0" d="M2177.95941-564.44886c112.58907,0,203.84533,91.25626,203.84533,203.84551,0,112.58908-91.25626,203.84534-203.84533,203.84534-112.56022,0-203.84569-91.25626-203.84569-203.84534" transform="translate(-23.36577 1000.24199)"/><line class="ac4682fa-2bcf-434b-b6d2-225ed6be15c4" x1="1638.75197" y1="28.11941" x2="1638.75197" y2="843.47565"/><path class="a68a6ca4-e576-472d-98ca-da6b8df11cc0" d="M48.36577-755.55154c0-112.56,91.25626-203.8163,203.84533-203.8163,112.56,0,203.84551,91.25626,203.84551,203.8163" transform="translate(-23.36577 1000.24199)"/><line class="a68a6ca4-e576-472d-98ca-da6b8df11cc0" x1="25" y1="843.47565" x2="25" y2="247.23929"/><line class="a68a6ca4-e576-472d-98ca-da6b8df11cc0" x1="432.69085" y1="843.47565" x2="432.69085" y2="247.23929"/><path class="a68a6ca4-e576-472d-98ca-da6b8df11cc0" d="M456.05661-755.55154c0-112.56,91.25627-203.8163,203.84534-203.8163,112.56,0,203.84551,91.25626,203.84551,203.8163" transform="translate(-23.36577 1000.24199)"/><line class="a68a6ca4-e576-472d-98ca-da6b8df11cc0" x1="840.38169" y1="843.47565" x2="840.38169" y2="247.23929"/><line class="a68a6ca4-e576-472d-98ca-da6b8df11cc0" x1="937.85262" y1="843.47565" x2="937.85262" y2="244.52204"/><path class="a68a6ca4-e576-472d-98ca-da6b8df11cc0" d="M961.21839-758.26879c0-112.56,91.25626-203.8163,203.84533-203.8163,112.56,0,203.84552,91.25626,203.84552,203.8163" transform="translate(-23.36577 1000.24199)"/><line class="a68a6ca4-e576-472d-98ca-da6b8df11cc0" x1="1345.54347" y1="843.47565" x2="1345.54347" y2="244.52204"/><path class="a68a6ca4-e576-472d-98ca-da6b8df11cc0" d="M1458.27232-771.42569c0-112.56,91.25626-203.8163,203.84533-203.8163,112.56,0,203.84551,91.25626,203.84551,203.8163" transform="translate(-23.36577 1000.24199)"/><path class="a68a6ca4-e576-472d-98ca-da6b8df11cc0" d="M2177.95941-564.44886c-112.56022,0-203.84569-91.25626-203.84569-203.84533,0-112.56,91.28547-203.8163,203.84569-203.8163,112.58907,0,203.84533,91.25626,203.84533,203.8163" transform="translate(-23.36577 1000.24199)"/><path class="ac4682fa-2bcf-434b-b6d2-225ed6be15c4" d="M246.94339,300.73121c0-112.56,91.25626-203.8163,203.84533-203.8163,112.56,0,203.84551,91.25626,203.84551,203.8163" transform="translate(-23.36577 1000.24199)"/><line class="ac4682fa-2bcf-434b-b6d2-225ed6be15c4" x1="223.57762" y1="1698.63855" x2="223.57762" y2="1300.98436"/><line class="ac4682fa-2bcf-434b-b6d2-225ed6be15c4" x1="428.26308" y1="1502.72979" x2="222.76669" y2="1502.72979"/><path class="ac4682fa-2bcf-434b-b6d2-225ed6be15c4" d="M246.94339,698.39657c0,112.56,91.25626,203.8163,203.84533,203.8163,112.56,0,203.84551-91.25627,203.84551-203.8163" transform="translate(-23.36577 1000.24199)"/><line class="a68a6ca4-e576-472d-98ca-da6b8df11cc0" x1="1345.63423" y1="534.24224" x2="938.15742" y2="534.61724"/><line class="ac4682fa-2bcf-434b-b6d2-225ed6be15c4" x1="756.11249" y1="1090.95517" x2="756.11249" y2="1906.31141"/><line class="ac4682fa-2bcf-434b-b6d2-225ed6be15c4" x1="1163.85089" y1="1498.44579" x2="756.37409" y2="1498.82079"/><line class="ac4682fa-2bcf-434b-b6d2-225ed6be15c4" x1="1164.11249" y1="1093.95517" x2="1164.11249" y2="1909.31141"/><line class="ac4682fa-2bcf-434b-b6d2-225ed6be15c4" x1="1770.11249" y1="1092.95517" x2="1770.11249" y2="1908.31141"/><line class="ac4682fa-2bcf-434b-b6d2-225ed6be15c4" x1="2181.85089" y1="1908.44579" x2="1774.37409" y2="1908.82079"/><line class="ac4682fa-2bcf-434b-b6d2-225ed6be15c4" x1="2307.24329" y1="1095.70048" x2="2307.24329" y2="1911.05672"/><line class="ac4682fa-2bcf-434b-b6d2-225ed6be15c4" x1="2714.98169" y1="1911.1911" x2="2307.50489" y2="1911.5661"/><path class="ac4682fa-2bcf-434b-b6d2-225ed6be15c4" d="M1482.57011,90.54588c112.56,0,203.8163,91.25626,203.8163,203.84534,0,112.56-91.25626,203.84551-203.8163,203.84551" transform="translate(-23.36577 1000.24199)"/><line class="ac4682fa-2bcf-434b-b6d2-225ed6be15c4" x1="1289.11249" y1="1093.95517" x2="1289.11249" y2="1909.31141"/><line class="ac4682fa-2bcf-434b-b6d2-225ed6be15c4" x1="1453.63449" y1="1090.24247" x2="1289.37428" y2="1090.82127"/><line class="ac4682fa-2bcf-434b-b6d2-225ed6be15c4" x1="1473.2426" y1="1498.34389" x2="1308.98238" y2="1498.9227"/><path class="ac4682fa-2bcf-434b-b6d2-225ed6be15c4" d="M1482.57015,501.59659c112.56,0,203.8163,91.25626,203.8163,203.84534,0,112.56-91.25626,203.84551-203.8163,203.84551" transform="translate(-23.36577 1000.24199)"/><line class="ac4682fa-2bcf-434b-b6d2-225ed6be15c4" x1="1453.54952" y1="1502.29318" x2="1289.28931" y2="1502.87198"/><line class="ac4682fa-2bcf-434b-b6d2-225ed6be15c4" x1="1453.15763" y1="1909.3946" x2="1288.89742" y2="1909.97341"/></svg>