<svg id="f5820c9a-7737-4af8-a6ac-e9c9a9d043fd" data-name="Laag 1" xmlns="http://www.w3.org/2000/svg" viewBox="0 0 2953.26846 868.48398">
  <defs>
    <style>.b718cbeb-901b-40bd-aadf-123d23850ea0,.b71c3d05-a476-4480-a0fd-dbb9d6841756{fill:none;stroke-linecap:round;stroke-miterlimit:10;stroke-width:50px;}.b718cbeb-901b-40bd-aadf-123d23850ea0{stroke:currentColor;}.b71c3d05-a476-4480-a0fd-dbb9d6841756{stroke:currentColor;}</style>
  </defs>
  <path class="b718cbeb-901b-40bd-aadf-123d23850ea0" d="M2177.95941,501.55114c112.58907,0,203.84533,91.25626,203.84533,203.84551,0,112.58908-91.25626,203.84534-203.84533,203.84534-112.56022,0-203.84569-91.25626-203.84569-203.84534" transform="translate(-23.36577 -65.75801)"/>
  <line class="b71c3d05-a476-4480-a0fd-dbb9d6841756" x1="1638.75197" y1="28.11941" x2="1638.75197" y2="843.47565"/>
  <path class="b718cbeb-901b-40bd-aadf-123d23850ea0" d="M48.36577,310.44846c0-112.56,91.25626-203.8163,203.84533-203.8163,112.56,0,203.84551,91.25626,203.84551,203.8163" transform="translate(-23.36577 -65.75801)"/>
  <line class="b718cbeb-901b-40bd-aadf-123d23850ea0" x1="25" y1="843.47565" x2="25" y2="247.23929"/>
  <line class="b718cbeb-901b-40bd-aadf-123d23850ea0" x1="432.69085" y1="843.47565" x2="432.69085" y2="247.23929"/>
  <path class="b718cbeb-901b-40bd-aadf-123d23850ea0" d="M456.05661,310.44846c0-112.56,91.25627-203.8163,203.84534-203.8163,112.56,0,203.84551,91.25626,203.84551,203.8163" transform="translate(-23.36577 -65.75801)"/>
  <line class="b718cbeb-901b-40bd-aadf-123d23850ea0" x1="840.38169" y1="843.47565" x2="840.38169" y2="247.23929"/>
  <line class="b718cbeb-901b-40bd-aadf-123d23850ea0" x1="937.85262" y1="843.47565" x2="937.85262" y2="244.52204"/>
  <path class="b718cbeb-901b-40bd-aadf-123d23850ea0" d="M961.21839,307.73121c0-112.56,91.25626-203.8163,203.84533-203.8163,112.56,0,203.84552,91.25626,203.84552,203.8163" transform="translate(-23.36577 -65.75801)"/>
  <line class="b718cbeb-901b-40bd-aadf-123d23850ea0" x1="1345.54347" y1="843.47565" x2="1345.54347" y2="244.52204"/>
  <path class="b718cbeb-901b-40bd-aadf-123d23850ea0" d="M1458.27232,294.57431c0-112.56,91.25626-203.8163,203.84533-203.8163,112.56,0,203.84551,91.25626,203.84551,203.8163" transform="translate(-23.36577 -65.75801)"/>
  <path class="b718cbeb-901b-40bd-aadf-123d23850ea0" d="M2177.95941,501.55114c-112.56022,0-203.84569-91.25626-203.84569-203.84533,0-112.56,91.28547-203.8163,203.84569-203.8163,112.58907,0,203.84533,91.25626,203.84533,203.8163" transform="translate(-23.36577 -65.75801)"/>
  <path class="b718cbeb-901b-40bd-aadf-123d23850ea0" d="M2543.94339,307.73121c0-112.56,91.25626-203.8163,203.84533-203.8163,112.56,0,203.84551,91.25626,203.84551,203.8163" transform="translate(-23.36577 -65.75801)"/>
  <line class="b718cbeb-901b-40bd-aadf-123d23850ea0" x1="2520.57762" y1="639.63855" x2="2520.57762" y2="241.98436"/>
  <line class="b718cbeb-901b-40bd-aadf-123d23850ea0" x1="2725.26308" y1="443.72979" x2="2519.76669" y2="443.72979"/>
  <path class="b718cbeb-901b-40bd-aadf-123d23850ea0" d="M2543.94339,705.39657c0,112.56,91.25626,203.8163,203.84533,203.8163,112.56,0,203.84551-91.25627,203.84551-203.8163" transform="translate(-23.36577 -65.75801)"/>
  <line class="b718cbeb-901b-40bd-aadf-123d23850ea0" x1="1345.63423" y1="534.24224" x2="938.15742" y2="534.61724"/>
</svg>